<svg xmlns="http://www.w3.org/2000/svg" xmlns:xlink="http://www.w3.org/1999/xlink" width="1080" zoomAndPan="magnify" viewBox="0 0 810 809.999993" height="1080" preserveAspectRatio="xMidYMid meet" version="1.0"><defs><clipPath id="e16db39b3b"><path d="M 112.03125 125.730469 L 697 125.730469 L 697 684.480469 L 112.03125 684.480469 Z M 112.03125 125.730469 " clip-rule="nonzero"/></clipPath></defs><g clip-path="url(#e16db39b3b)"><path fill="#f4f4f4" d="M 680.003906 125.878906 C 679.101562 125.890625 678.175781 125.96875 677.289062 126.128906 L 677.242188 126.128906 L 587.84375 141.386719 C 582.15625 142.363281 577.390625 146.257812 575.289062 151.625 C 575.289062 151.640625 575.289062 151.660156 575.289062 151.675781 L 533.804688 257.976562 L 128.949219 268.066406 C 124.292969 268.183594 119.921875 270.285156 116.894531 273.789062 C 113.867188 277.289062 112.410156 281.949219 112.976562 286.585938 L 135.328125 471.332031 C 136.25 479.082031 142.65625 485.230469 150.445312 485.835938 L 439.070312 508.773438 L 496.273438 553.742188 C 496.339844 553.792969 496.40625 553.84375 496.476562 553.890625 C 496.535156 553.933594 496.613281 553.949219 496.675781 553.992188 C 496.738281 554.035156 496.808594 554.097656 496.878906 554.144531 C 507.316406 561.929688 509.90625 572.539062 508.429688 578.433594 C 507.589844 581.792969 506.304688 584.261719 503.257812 586.164062 C 500.207031 588.066406 494.941406 589.441406 485.929688 588.925781 C 485.894531 588.925781 485.863281 588.925781 485.828125 588.925781 C 485.539062 588.914062 485.214844 588.917969 484.925781 588.925781 L 484.773438 588.925781 L 140.539062 589.929688 L 140.488281 589.929688 C 131.445312 589.871094 123.832031 597.453125 123.867188 606.492188 C 123.902344 615.527344 131.542969 623.082031 140.589844 622.953125 L 140.640625 622.953125 L 165.800781 622.902344 C 156.453125 628.859375 150.183594 639.277344 150.183594 651.109375 C 150.183594 669.511719 165.265625 684.585938 183.679688 684.585938 C 202.097656 684.585938 217.179688 669.511719 217.179688 651.109375 C 217.179688 639.210938 210.894531 628.691406 201.460938 622.75 L 484.929688 621.949219 C 474.714844 627.703125 467.75 638.625 467.75 651.109375 C 467.75 669.511719 482.832031 684.585938 501.25 684.585938 C 519.667969 684.585938 534.75 669.511719 534.75 651.109375 C 534.75 635.125 523.386719 621.652344 508.332031 618.382812 C 522.566406 613.351562 533.503906 602.976562 540.273438 587.117188 C 540.371094 586.921875 540.457031 586.722656 540.523438 586.515625 C 545.714844 565.769531 536.507812 543.214844 517.523438 528.542969 C 517.472656 528.492188 517.421875 528.441406 517.371094 528.394531 C 517.324219 528.359375 517.316406 528.277344 517.273438 528.242188 C 517.105469 528.042969 516.921875 527.859375 516.71875 527.691406 L 476.1875 495.921875 L 602.601562 172.347656 L 682.804688 158.695312 L 682.855469 158.695312 C 691.28125 157.34375 697.445312 149.496094 696.71875 140.980469 C 695.992188 132.449219 688.550781 125.757812 679.992188 125.871094 Z M 521.597656 283.472656 L 498.292969 343.199219 L 467.910156 343.199219 L 467.910156 284.828125 Z M 456.308594 285.128906 L 456.308594 343.199219 L 400.207031 343.199219 L 400.207031 286.535156 Z M 388.605469 286.785156 L 388.605469 343.199219 L 332.507812 343.199219 L 332.507812 288.191406 Z M 320.90625 288.492188 L 320.90625 343.199219 L 264.808594 343.199219 L 264.808594 289.894531 Z M 253.207031 290.199219 L 253.207031 343.199219 L 197.105469 343.199219 L 197.105469 291.605469 Z M 185.503906 291.855469 L 185.503906 343.199219 L 144.371094 343.199219 L 138.292969 293.058594 Z M 145.777344 354.742188 L 185.503906 354.742188 L 185.503906 407.1875 L 152.105469 407.1875 Z M 197.105469 354.742188 L 253.207031 354.742188 L 253.207031 407.1875 L 197.105469 407.1875 Z M 264.808594 354.742188 L 320.90625 354.742188 L 320.90625 407.1875 L 264.808594 407.1875 Z M 332.507812 354.742188 L 388.605469 354.742188 L 388.605469 407.1875 L 332.507812 407.1875 Z M 400.207031 354.742188 L 456.308594 354.742188 L 456.308594 407.1875 L 400.207031 407.1875 Z M 467.910156 354.742188 L 493.824219 354.742188 L 473.332031 407.1875 L 467.910156 407.1875 Z M 153.519531 418.734375 L 185.511719 418.734375 L 185.511719 456.375 L 157.789062 454.167969 Z M 197.113281 418.734375 L 253.214844 418.734375 L 253.214844 461.746094 L 197.113281 457.277344 Z M 264.816406 418.734375 L 320.914062 418.734375 L 320.914062 467.117188 L 264.816406 462.699219 Z M 332.515625 418.734375 L 388.613281 418.734375 L 388.613281 472.535156 L 332.515625 468.070312 Z M 400.21875 418.734375 L 456.316406 418.734375 L 456.316406 450.652344 L 445.667969 477.90625 C 444.285156 477.238281 442.78125 476.828125 441.25 476.703125 L 400.21875 473.441406 Z M 467.917969 418.734375 L 468.769531 418.734375 L 467.917969 421.09375 Z M 183.710938 631.441406 C 194.65625 631.441406 203.398438 640.175781 203.398438 651.113281 C 203.398438 662.054688 194.65625 670.738281 183.710938 670.738281 C 172.765625 670.738281 164.023438 662.054688 164.023438 651.113281 C 164.023438 640.175781 172.765625 631.441406 183.710938 631.441406 Z M 501.265625 631.441406 C 512.210938 631.441406 520.953125 640.175781 520.953125 651.113281 C 520.953125 662.054688 512.210938 670.738281 501.265625 670.738281 C 490.320312 670.738281 481.578125 662.054688 481.578125 651.113281 C 481.578125 640.175781 490.320312 631.441406 501.265625 631.441406 Z M 183.710938 640.777344 C 177.765625 640.777344 173.015625 645.523438 173.015625 651.464844 C 173.015625 657.410156 177.765625 662.105469 183.710938 662.105469 C 189.65625 662.105469 194.410156 657.410156 194.410156 651.464844 C 194.410156 645.523438 189.65625 640.777344 183.710938 640.777344 Z M 501.265625 640.777344 C 495.320312 640.777344 490.570312 645.523438 490.570312 651.464844 C 490.570312 657.410156 495.320312 662.105469 501.265625 662.105469 C 507.210938 662.105469 511.964844 657.410156 511.964844 651.464844 C 511.964844 645.523438 507.210938 640.777344 501.265625 640.777344 Z M 501.265625 640.777344 " fill-opacity="1" fill-rule="nonzero"/></g></svg>