<?xml version="1.0" standalone="no"?>
<!DOCTYPE svg PUBLIC "-//W3C//DTD SVG 20010904//EN"
 "http://www.w3.org/TR/2001/REC-SVG-20010904/DTD/svg10.dtd">
<svg version="1.0" xmlns="http://www.w3.org/2000/svg"
 width="150.000000px" height="100.000000px" viewBox="0 0 424.000000 254.000000"
 preserveAspectRatio="xMidYMid meet">

<g transform="translate(0.000000,254.000000) scale(0.100000,-0.100000)"
fill="#000000" stroke="none">
<path d="M1598 2273 c7 -3 16 -2 19 1 4 3 -2 6 -13 5 -11 0 -14 -3 -6 -6z"/>
<path d="M1942 2263 c-18 -2 -32 -8 -30 -12 3 -8 132 -122 176 -156 25 -19 42
-20 398 -20 l371 0 -66 28 c-191 82 -336 128 -451 142 -127 15 -347 25 -398
18z"/>
<path d="M1430 2230 c-8 -5 -10 -10 -5 -10 6 0 17 5 25 10 8 5 11 10 5 10 -5
0 -17 -5 -25 -10z"/>
<path d="M1654 2230 c-68 -10 -204 -51 -204 -62 0 -5 18 -31 39 -58 22 -28 43
-60 46 -71 7 -21 10 -21 213 -14 114 3 219 9 234 11 33 7 30 17 -32 87 -74 84
-182 123 -296 107z"/>
<path d="M1327 2180 c-74 -43 -170 -115 -202 -149 -35 -39 -147 -114 -260
-173 -60 -32 -107 -58 -102 -58 15 0 193 93 257 135 36 23 106 77 155 120 50
42 124 96 165 121 41 24 70 44 65 44 -6 0 -41 -18 -78 -40z"/>
<path d="M1339 2119 c-31 -17 -76 -51 -100 -76 l-44 -45 55 6 c30 3 99 8 153
12 53 3 97 9 97 13 0 15 -63 102 -80 111 -23 13 -16 15 -81 -21z"/>
<path d="M2368 2043 c6 -2 18 -2 25 0 6 3 1 5 -13 5 -14 0 -19 -2 -12 -5z"/>
<path d="M2421 2046 c2 -2 67 -10 144 -16 77 -7 215 -25 307 -40 196 -32 240
-53 341 -159 l60 -65 -44 82 c-34 64 -41 84 -31 91 21 13 223 22 267 11 64
-15 74 -10 19 10 -67 23 -260 56 -448 75 -132 13 -627 22 -615 11z"/>
<path d="M2772 1924 c-30 -21 -28 -38 11 -80 39 -43 102 -57 130 -29 24 23 21
42 -10 73 -15 15 -27 29 -26 32 1 3 -8 5 -20 5 -12 1 -31 4 -42 8 -13 4 -29 1
-43 -9z"/>
<path d="M2978 1929 c-51 -28 22 -136 99 -146 34 -4 43 -2 52 15 13 24 6 48
-23 81 -12 14 -14 21 -6 16 9 -5 12 -5 7 1 -5 5 -12 9 -15 9 -4 1 -16 6 -27
11 -33 18 -69 23 -87 13z"/>
<path d="M3300 1931 c-46 -4 -66 -10 -68 -21 -4 -23 70 -140 98 -155 16 -8 78
-14 170 -16 l145 -4 -2 38 c-2 21 -11 58 -22 82 -17 39 -25 45 -73 60 -63 19
-158 25 -248 16z"/>
<path d="M2913 1895 c22 -21 28 -35 25 -56 -3 -15 -1 -26 4 -23 23 15 1 77
-35 95 -18 9 -17 6 6 -16z"/>
<path d="M3120 1890 c0 -3 9 -23 20 -45 15 -29 20 -33 20 -18 0 17 -39 79 -40
63z"/>
<path d="M3630 1871 c0 -20 38 -97 55 -111 21 -18 20 3 -4 55 -19 42 -51 77
-51 56z"/>
<path d="M2396 1812 c72 -46 98 -110 97 -242 -1 -60 -7 -103 -22 -144 -22 -64
-40 -89 -86 -118 l-30 -20 34 6 c78 14 132 87 150 206 25 153 -42 302 -145
325 l-29 7 31 -20z"/>
<path d="M528 1713 c7 -3 16 -2 19 1 4 3 -2 6 -13 5 -11 0 -14 -3 -6 -6z"/>
<path d="M1230 1678 c15 -49 36 -75 71 -82 17 -3 138 -5 268 -5 l236 2 -220
13 c-283 18 -282 18 -327 64 l-36 39 8 -31z"/>
<path d="M1863 1583 c15 -2 39 -2 55 0 15 2 2 4 -28 4 -30 0 -43 -2 -27 -4z"/>
<path d="M1310 1540 c-20 -4 99 -8 269 -9 167 0 302 1 300 3 -9 8 -536 14
-569 6z"/>
<path d="M2622 1473 c2 -34 6 -64 8 -67 3 -2 76 -10 163 -16 205 -16 783 -8
875 13 76 17 108 43 98 82 -5 19 -10 24 -19 17 -47 -36 -298 -54 -583 -42
-120 6 -227 13 -238 16 -12 3 -30 16 -41 29 -19 21 -29 23 -144 27 l-123 3 4
-62z"/>
<path d="M2553 1437 c-14 -49 -66 -116 -118 -149 l-30 -20 80 7 c90 8 98 11
139 54 l30 31 -42 0 -41 0 -3 62 -3 62 -12 -47z"/>
<path d="M1220 1419 c222 -35 262 -38 425 -37 l180 1 -110 9 c-60 4 -246 22
-412 38 -167 17 -308 30 -315 29 -7 -1 97 -18 232 -40z"/>
<path d="M1928 1373 c12 -2 30 -2 40 0 9 3 -1 5 -23 4 -22 0 -30 -2 -17 -4z"/>
<path d="M3290 1340 l-135 -5 36 -28 c75 -57 173 -63 266 -17 34 17 67 37 73
45 14 17 28 16 -240 5z"/>
<path d="M526 1098 c-14 -19 -16 -67 -16 -320 0 -356 -6 -338 115 -338 107 0
115 10 115 140 l0 100 -40 0 -40 0 0 -85 0 -85 -35 0 -35 0 0 275 0 275 35 0
35 0 0 -85 0 -85 40 0 40 0 0 98 c0 127 -5 132 -118 132 -72 0 -83 -2 -96 -22z"/>
<path d="M865 1098 c-5 -25 -65 -613 -65 -640 0 -14 9 -18 39 -18 39 0 40 1
45 42 3 24 7 59 8 78 3 34 4 35 51 38 l47 3 0 -49 c0 -27 3 -64 6 -81 6 -28
10 -31 45 -31 22 0 39 3 39 8 0 19 -62 630 -66 650 -4 20 -10 22 -74 22 -64 0
-70 -2 -75 -22z m99 -238 c21 -206 23 -190 -24 -190 -31 0 -40 4 -40 18 0 49
35 341 41 334 3 -4 13 -77 23 -162z"/>
<path d="M1130 780 l0 -340 35 0 35 0 1 140 c1 77 2 146 3 153 0 7 15 12 36
12 l35 0 3 -152 3 -153 39 0 40 0 0 149 c0 132 -2 151 -19 172 -18 23 -18 25
-3 43 14 14 18 44 20 143 5 172 4 173 -128 173 l-100 0 0 -340z m145 160 l0
-115 -35 0 -35 0 -3 95 c-4 128 0 142 41 138 l32 -3 0 -115z"/>
<path d="M1566 1098 c-12 -17 -16 -50 -16 -140 l0 -118 75 -73 75 -73 0 -92 0
-92 -35 0 -35 0 0 96 0 95 -37 -3 -38 -3 -3 -107 c-3 -139 4 -148 112 -148 58
0 79 4 97 19 23 18 24 25 24 140 l0 121 -77 77 -78 78 0 93 0 92 34 0 c32 0
35 -2 41 -40 4 -22 6 -59 5 -83 -4 -65 -3 -67 35 -67 l35 0 0 106 c0 144 0
144 -110 144 -81 0 -90 -2 -104 -22z"/>
<path d="M1850 780 l0 -340 95 0 95 0 0 35 0 35 -55 0 -55 0 0 135 0 135 50 0
c43 0 50 3 50 19 0 11 3 26 6 35 5 13 -3 16 -50 16 l-56 0 0 105 0 105 55 0
c54 0 55 0 55 30 l0 30 -95 0 -95 0 0 -340z"/>
<path d="M2090 780 l0 -340 40 0 40 0 0 155 0 155 35 0 35 0 0 -155 0 -155 40
0 40 0 0 153 c0 124 -3 157 -16 175 -15 21 -15 25 0 41 13 14 16 42 16 148 0
165 1 163 -133 163 l-97 0 0 -340z m145 160 l0 -115 -32 -3 -33 -3 0 121 0
121 33 -3 32 -3 0 -115z"/>
<path d="M2361 1098 c0 -13 17 -165 37 -338 l37 -315 58 -3 c42 -2 57 1 57 10
0 16 68 579 76 631 l6 37 -40 0 c-47 0 -40 28 -73 -297 -13 -122 -24 -221 -26
-220 -3 4 -39 325 -49 440 l-7 77 -38 0 c-34 0 -39 -3 -38 -22z"/>
<path d="M2680 780 l0 -340 40 0 40 0 0 340 0 340 -40 0 -40 0 0 -340z"/>
<path d="M2846 1098 c-14 -19 -16 -67 -16 -320 0 -356 -6 -338 115 -338 107 0
115 10 115 140 l0 100 -40 0 -40 0 0 -85 0 -85 -35 0 -35 0 0 275 0 275 35 0
35 0 0 -85 0 -85 40 0 40 0 0 99 c0 128 -3 131 -115 131 -75 0 -85 -2 -99 -22z"/>
<path d="M3130 780 l0 -340 95 0 95 0 0 35 0 35 -55 0 -55 0 0 135 0 135 49 0
c42 0 49 3 55 23 12 44 8 47 -49 47 l-55 0 0 105 0 105 55 0 c54 0 55 0 55 30
l0 30 -95 0 -95 0 0 -340z"/>
<path d="M3396 1098 c-12 -17 -16 -50 -16 -142 l0 -119 75 -72 75 -71 0 -92 0
-92 -35 0 -35 0 0 95 0 95 -40 0 -40 0 0 -110 c0 -141 7 -150 113 -150 114 0
117 4 117 157 l0 125 -75 77 -75 77 0 92 0 92 34 0 c42 0 48 -13 45 -102 -2
-89 -3 -88 36 -88 l35 0 0 109 c0 139 -2 141 -115 141 -75 0 -85 -2 -99 -22z"/>
</g>
</svg>
